<?xml version="1.0" encoding="UTF-8"?>
<svg version="1.1" xmlns="http://www.w3.org/2000/svg" width="2936" height="845">
<path d="M0 0 C3.3474817 -1.86836188 6.63762766 -3.76796321 9.8671875 -5.8359375 C42.02107616 -26.35467819 82.01120636 -30.59987582 119 -23 C150.65485418 -15.74122462 177.47645926 1.61594706 195.125 29.1875 C218.05607932 68.06862442 219.34387149 110.48914062 219.20278788 154.45893598 C219.19008934 159.10062373 219.18909524 163.7423155 219.18673706 168.38401794 C219.18057745 177.13095388 219.16424328 185.87783844 219.14403808 194.62475199 C219.11727259 206.47468879 219.10666173 218.32464014 219.09503365 230.17459965 C219.07635714 248.78310474 219.03647533 267.39150155 219 286 C185.34 286 151.68 286 117 286 C116.96261719 273.60179687 116.92523437 261.20359375 116.88671875 248.4296875 C116.8564342 240.56379101 116.82540392 232.6979091 116.79101562 224.83203125 C116.73660061 212.35369202 116.6851845 199.87539326 116.65356445 187.39697266 C116.63051808 178.30757555 116.59704638 169.21828534 116.55129844 160.12897313 C116.52745546 155.32073667 116.50866839 150.5126055 116.50238609 145.70431137 C116.49629461 141.16853745 116.47614988 136.63303259 116.44572449 132.0973587 C116.43700888 130.44232433 116.43320806 128.7872547 116.43499184 127.13219833 C116.44599834 112.19327631 115.54928099 95.92502735 105.30078125 84.02734375 C99.17097236 78.42097921 92.76839228 76.44802361 84.625 76.5625 C83.50399902 76.57277222 83.50399902 76.57277222 82.36035156 76.58325195 C75.0051334 76.79699197 69.96017475 78.57803884 64.25 83.25 C52.12358 98.07118 51.70503734 115.70761007 51.68115234 134.10302734 C51.67183018 135.77010064 51.66165821 137.43716937 51.65071106 139.10423279 C51.62365454 143.58465619 51.60833481 148.06504861 51.59528303 152.54553175 C51.57954469 157.24471519 51.5527892 161.94383629 51.5272522 166.64297485 C51.48065245 175.52126796 51.44381794 184.39957304 51.41057932 193.27792513 C51.36503822 205.28951403 51.30423465 217.30102534 51.24433136 229.31254959 C51.1504938 248.2083273 51.07689475 267.10412815 51 286 C17.67 286 -15.66 286 -50 286 C-50.03738281 273.92535156 -50.07476563 261.85070312 -50.11328125 249.41015625 C-50.14357306 241.74022309 -50.17460877 234.07030477 -50.20898438 226.40039062 C-50.26335565 214.23837664 -50.31477344 202.07640379 -50.34643555 189.91430664 C-50.36951466 181.05450811 -50.40302203 172.19481864 -50.44870156 163.33510679 C-50.47250097 158.65029441 -50.49131627 153.96558916 -50.49761391 149.28071785 C-50.50372552 144.85737871 -50.52394015 140.43431318 -50.55427551 136.01107597 C-50.56295959 134.40084113 -50.56679872 132.79057038 -50.56500816 131.18031311 C-50.55319741 115.63657986 -50.7903987 95.43491172 -62.20703125 83.5390625 C-69.76199926 77.05397013 -77.36219048 76.11999578 -86.98828125 76.578125 C-93.40112446 77.10892532 -97.81366423 79.21117982 -102.75 83.25 C-115.44828046 98.77012057 -115.29328878 117.98711 -115.31884766 137.16821289 C-115.32817778 138.80617246 -115.33835085 140.44412741 -115.34928894 142.08207703 C-115.37625609 146.46935046 -115.39163779 150.85659244 -115.40471697 155.24392629 C-115.42049558 159.85100307 -115.44723764 164.4580169 -115.4727478 169.06504822 C-115.51927766 177.76261967 -115.55614541 186.46020331 -115.58942068 195.15783447 C-115.63502661 206.92966935 -115.69580402 218.70142569 -115.75566864 230.47319508 C-115.84939984 248.9820904 -115.92307321 267.49100952 -116 286 C-149.33 286 -182.66 286 -217 286 C-217.1209091 242.32942337 -217.1209091 242.32942337 -217.14648438 223.8984375 C-217.16422091 211.21903809 -217.18496514 198.5396989 -217.22631836 185.86035156 C-217.25643351 176.62223049 -217.27562488 167.3841587 -217.28226548 158.14598989 C-217.28614071 153.26472964 -217.29510008 148.38361025 -217.31719017 143.50239563 C-217.53235412 93.98113632 -212.45284713 44.95758294 -176.3125 7.8125 C-131.36895273 -36.8855212 -49.2238293 -37.38183087 0 0 Z " fill="#4B9379" transform="translate(877,424)"/>
<path d="M0 0 C33.66 0 67.32 0 102 0 C102.33 33.66 102.66 67.32 103 102 C108.28 99.36 113.56 96.72 119 94 C152.7828853 81.07972433 191.51098606 86.84851512 224 101 C238.37096002 107.58837894 251.21933687 116.12927003 262.76953125 126.92578125 C264.81160319 128.82480087 266.91451582 130.59837655 269.0625 132.375 C291.98379762 152.44836084 307.41914151 184.49357902 313 214 C313.17587646 214.90919189 313.35175293 215.81838379 313.53295898 216.75512695 C315.13746844 225.92915412 315.35791298 234.90608299 315.3125 244.1875 C315.30976578 245.34678009 315.30976578 245.34678009 315.30697632 246.52947998 C315.26163932 257.94347441 314.82039895 268.88762814 312 280 C311.82307617 280.70141113 311.64615234 281.40282227 311.46386719 282.12548828 C304.32645633 309.78141446 291.29814885 334.0365933 271.42431641 354.52441406 C270.11327953 355.88264288 268.82686442 357.26452452 267.54296875 358.6484375 C256.4954467 370.26390844 243.14797501 378.66755349 229 386 C228.39220703 386.31952637 227.78441406 386.63905273 227.15820312 386.96826172 C216.57145713 392.46566809 205.53942594 396.05227739 194 399 C193.31228516 399.18079102 192.62457031 399.36158203 191.91601562 399.54785156 C170.82898773 404.82485407 144.01280999 404.29843302 123 399 C122.27151855 398.82839355 121.54303711 398.65678711 120.79248047 398.47998047 C109.64497095 395.82761748 99.29010052 392.02133986 89 387 C88.36465332 386.69191406 87.72930664 386.38382813 87.07470703 386.06640625 C70.03708446 377.68881474 56.34015922 366.42040078 43 353 C42.45126221 352.47486816 41.90252441 351.94973633 41.3371582 351.40869141 C37.06657933 347.27557125 33.50733254 342.94353612 30.125 338.0625 C29.6103418 337.32161133 29.09568359 336.58072266 28.56542969 335.81738281 C17.04020835 318.98383483 9.02330235 301.22729007 4.125 281.375 C3.93389648 280.61421143 3.74279297 279.85342285 3.54589844 279.06958008 C-0.37779173 261.87050083 -0.28353491 244.24332885 -0.22705078 226.71020508 C-0.22648536 224.22467554 -0.22680578 221.73914568 -0.22793579 219.25361633 C-0.22838788 213.94297052 -0.22279984 208.63238612 -0.21146011 203.32175636 C-0.19507644 195.64386698 -0.18998409 187.96600124 -0.18748413 180.28809627 C-0.18312699 167.82559551 -0.16987221 155.3631212 -0.15087891 142.90063477 C-0.13246844 130.80786266 -0.11833736 118.71509778 -0.10986328 106.62231445 C-0.10933783 105.87458331 -0.10881239 105.12685217 -0.10827102 104.35646252 C-0.10566059 100.60461866 -0.10313326 96.85277475 -0.10064721 93.10093081 C-0.07997653 62.06726374 -0.04314054 31.03364599 0 0 Z M136 193 C135.14277344 193.32742188 134.28554687 193.65484375 133.40234375 193.9921875 C120.83253098 199.45039463 111.06950826 210.53776914 105.7265625 222.9609375 C99.76734382 238.72539544 100.46529554 254.55112066 107.28515625 269.890625 C114.82908884 284.9364627 126.49234487 293.25302876 141.95703125 299.0546875 C156.98906546 303.72445936 172.26355379 300.95303335 185.98901367 293.88476562 C199.51682869 286.51520535 207.9717643 274.21462008 212.34375 259.62109375 C216.26734282 243.95007719 214.06834488 229.16969178 206.07421875 215.17578125 C197.22968525 201.63415086 185.31057995 193.38443074 169.7109375 189.41796875 C158.12348224 187.63143026 146.85100432 188.55359117 136 193 Z " fill="#468F7C" transform="translate(1135,318)"/>
<path d="M0 0 C34.98 0 69.96 0 106 0 C110.49980043 8.99960086 110.49980043 8.99960086 111.96020508 12.63549805 C112.29246597 13.45788467 112.62472687 14.2802713 112.96705627 15.12757874 C113.31437302 15.99684494 113.66168976 16.86611115 114.01953125 17.76171875 C114.39476425 18.69290024 114.76999725 19.62408173 115.15660095 20.58348083 C116.37825605 23.6169478 117.5953445 26.65222517 118.8125 29.6875 C119.6672757 31.81183412 120.52242317 33.93601868 121.37792969 36.06005859 C123.10491135 40.3483008 124.83052794 44.63708821 126.55517578 48.92626953 C129.63691119 56.5868065 132.73775444 64.23954671 135.84310913 71.89053345 C137.05753262 74.88272221 138.27108885 77.87526243 139.48469543 80.86778259 C140.38618167 83.09060644 141.28780551 85.31337443 142.18945312 87.53613281 C144.66705285 93.64425811 147.14333653 99.75291686 149.61962891 105.86157227 C150.86131714 108.92463102 152.10318452 111.98761705 153.34521484 115.05053711 C156.28940031 122.31138585 159.23233417 129.57273607 162.17169189 136.83554077 C163.5688868 140.28766135 164.96667037 143.73954343 166.36450195 147.19140625 C167.03423131 148.84574618 167.70366843 150.50020445 168.37280273 152.15478516 C169.29728755 154.44072467 170.2227548 156.72626411 171.1484375 159.01171875 C171.56136551 160.03388741 171.56136551 160.03388741 171.9826355 161.07670593 C173.4006972 164.57866373 173.4006972 164.57866373 175 168 C182.83981239 148.66928728 190.67498285 129.33670699 198.5 110 C203.87107403 96.72757337 209.24509826 83.45635097 214.625 70.1875 C214.92783905 69.44054871 215.2306781 68.69359741 215.54269409 67.92401123 C218.70548397 60.12310345 221.86902972 52.32250275 225.03369141 44.52235413 C226.38526277 41.1908941 227.7365616 37.85932356 229.08782959 34.52774048 C229.72380053 32.95995603 230.35990283 31.39222486 230.99615479 29.82455444 C231.88448768 27.63577516 232.77236149 25.4468101 233.66015625 23.2578125 C233.90962509 22.64348862 234.15909393 22.02916473 234.41612244 21.39622498 C237.30341963 14.27439444 240.14580812 7.13547971 243 0 C278.31 0 313.62 0 350 0 C346.62882945 11.23723515 346.62882945 11.23723515 344.57421875 16.08984375 C343.88646362 17.7294104 343.88646362 17.7294104 343.18481445 19.40209961 C342.69070068 20.56878174 342.19658691 21.73546387 341.6875 22.9375 C340.58763596 25.56103858 339.49267791 28.1866116 338.3984375 30.8125 C338.11545303 31.49082382 337.83246857 32.16914764 337.54090881 32.86802673 C334.55958451 40.02932151 331.68130354 47.23056062 328.8125 54.4375 C322.27217958 70.85069869 315.67259806 87.23981343 309.0625 103.625 C308.51990323 104.97012152 307.97731088 106.31524481 307.4347229 107.66036987 C304.15175762 115.79895823 300.86796438 123.93721232 297.58380127 132.07531738 C295.10643834 138.21418918 292.62942561 144.35320228 290.15234375 150.4921875 C287.32673622 157.49485521 284.50104027 164.49748721 281.67504883 171.5 C276.13580654 185.22603424 270.59870075 198.95292725 265.06523132 212.68128967 C262.40621956 219.2780202 259.74608191 225.87429212 257.08325195 232.46948242 C256.04627867 235.03820509 255.00942637 237.60697657 253.97265625 240.17578125 C253.71901621 240.80417845 253.46537617 241.43257565 253.20405006 242.08001518 C249.6560391 250.87208998 246.13145346 259.67329518 242.62109375 268.48046875 C227.21228185 307.08564191 227.21228185 307.08564191 218.36962891 324.31982422 C216.93997111 327.11746829 215.55306237 329.93396369 214.16796875 332.75390625 C203.023547 355.12341129 189.09062556 375.74287143 172 394 C171.10539063 394.96035156 170.21078125 395.92070313 169.2890625 396.91015625 C144.83347652 422.58602267 110.35508402 437.90054078 74.8972168 439.19067383 C70.66019652 439.2899785 66.42529459 439.28003672 62.1875 439.25 C61.07820633 439.2468428 61.07820633 439.2468428 59.94650269 439.24362183 C33.46581176 439.15527059 33.46581176 439.15527059 24 436 C24 404.32 24 372.64 24 340 C28.29 340.33 32.58 340.66 37 341 C58.68305512 341.73501882 80.47755085 341.19563744 97.81640625 326.19140625 C106.86118913 317.11426278 111.68873729 305.76872669 112.25 293 C112.05151378 283.02606734 109.16713775 273.99328743 105.41723633 264.86938477 C104.6932969 263.08417027 103.96939053 261.29894236 103.24551392 259.51370239 C102.68694891 258.14351896 102.68694891 258.14351896 102.11709976 256.74565506 C100.33761553 252.37196343 98.58381653 247.98801928 96.8269043 243.60522461 C96.09672029 241.7876614 95.36632278 239.97018395 94.63572693 238.15278625 C94.26081053 237.22008722 93.88589413 236.28738819 93.49961662 235.32642555 C92.91779468 233.87900506 92.91779468 233.87900506 92.32421875 232.40234375 C91.4890445 230.32428071 90.65388567 228.24621147 89.81874084 226.1681366 C87.57524933 220.58581845 85.33156013 215.00357978 83.08781433 209.42136383 C79.25077848 199.87514259 75.41397462 190.32882809 71.57714462 180.78252411 C70.58210957 178.30681782 69.58706786 175.8311142 68.59201431 173.35541534 C61.59035182 155.93520441 54.59061322 138.51422191 47.59246254 121.09259987 C44.70413803 113.90239677 41.81550306 106.71231839 38.9268713 99.52223873 C36.19564309 92.72384804 33.46489256 85.92526575 30.73450756 79.12653637 C29.02362596 74.86678309 27.31221899 70.607241 25.60071373 66.34773827 C24.78004405 64.30493694 23.95960673 62.26204225 23.13941383 60.21904945 C18.93427186 49.74474544 14.71328185 39.2775439 10.43945312 28.83105469 C9.72541432 27.08268404 9.01140395 25.33430179 8.29742432 23.58590698 C6.97991064 20.36022508 5.65559633 17.13745683 4.3270874 13.91629028 C3.74679139 12.4975136 3.16671916 11.07864535 2.58691406 9.65966797 C2.32160133 9.02201382 2.0562886 8.38435966 1.7829361 7.72738266 C0.65995997 4.96459082 0 3.01848937 0 0 Z " fill="#539875" transform="translate(297,406)"/>
<path d="M0 0 C0.56251465 0.40025391 1.1250293 0.80050781 1.70458984 1.21289062 C17.15438896 12.39627328 30.57522296 26.02153507 41 42 C41.43006348 42.65548828 41.86012695 43.31097656 42.30322266 43.98632812 C65.09359645 79.28889744 72.17661877 122.89736105 63.47802734 163.87451172 C54.12904028 204.57856308 28.99685165 240.73476836 -6.3125 263.125 C-43.74789774 285.41546492 -86.72261407 293.23159812 -129.41015625 282.7109375 C-140.4044463 279.82379813 -150.80382654 276.01167848 -161 271 C-162.11632813 270.45601562 -163.23265625 269.91203125 -164.3828125 269.3515625 C-177.90812033 262.40965752 -189.67504349 253.05618545 -201 243 C-201.65355469 242.41992188 -202.30710937 241.83984375 -202.98046875 241.2421875 C-228.58886084 217.03282871 -246.68236057 178.31589719 -248.16113281 143.17041016 C-248.18101716 141.79336669 -248.19473991 140.41622399 -248.203125 139.0390625 C-248.20882507 138.29022797 -248.21452515 137.54139343 -248.22039795 136.76986694 C-248.22979745 135.18822619 -248.2363617 133.60656629 -248.24023438 132.02490234 C-248.2498333 129.66596736 -248.28085914 127.30794597 -248.3125 124.94921875 C-248.3867347 114.32029858 -247.23411554 104.38554386 -245 94 C-244.80647949 93.09991211 -244.61295898 92.19982422 -244.41357422 91.27246094 C-243.92917918 89.18450416 -243.39519953 87.12497333 -242.8125 85.0625 C-242.6074585 84.33216553 -242.40241699 83.60183105 -242.19116211 82.84936523 C-230.677914 43.87408692 -202.5163883 10.456122 -167.14941406 -9.01904297 C-114.75574019 -37.34462237 -48.83290908 -34.76193239 0 0 Z M-134.9921875 94.15234375 C-145.36429225 106.46087149 -148.02040975 121.35371717 -147 137 C-144.73432359 152.65030261 -136.5970956 165.58163223 -124.1953125 175.16796875 C-121.52401979 176.94252439 -118.83949765 178.51145277 -116 180 C-114.85337891 180.61294922 -114.85337891 180.61294922 -113.68359375 181.23828125 C-101.12594961 187.08151668 -85.81540929 187.24747742 -72.84765625 182.95703125 C-57.52954944 176.98818509 -46.03242025 166.99399446 -39 152 C-33.54756435 138.59475141 -32.82954701 123.63649886 -37.73828125 109.9609375 C-44.03974269 95.17298774 -53.60087878 83.67777607 -68.70703125 77.35546875 C-93.46340176 68.20694845 -117.10864234 74.83110182 -134.9921875 94.15234375 Z " fill="#4A927A" transform="translate(2096,429)"/>
<path d="M0 0 C0.78787903 -0.00705963 1.57575806 -0.01411926 2.38751221 -0.02139282 C19.91125708 -0.14256239 37.15258584 -0.06560944 54.43359375 3.203125 C55.43471191 3.39116699 56.43583008 3.57920898 57.46728516 3.77294922 C88.57104617 9.84869554 117.77892456 21.0568628 145.62109375 36.078125 C146.44109863 36.51825928 147.26110352 36.95839355 148.10595703 37.41186523 C148.86763184 37.83540283 149.62930664 38.25894043 150.4140625 38.6953125 C151.07301514 39.05995605 151.73196777 39.42459961 152.41088867 39.80029297 C155.06993146 41.64445227 157.19803418 43.87363843 159.43359375 46.203125 C146.31980831 68.66626236 133.17697002 91.11712416 119.43359375 113.203125 C115.80347752 111.87487643 112.81675587 110.24211668 109.62109375 108.078125 C80.34752616 89.23986121 41.89610837 78.03526874 7.12109375 84.453125 C0.2513378 86.06732995 -5.60948857 87.90098801 -10.62890625 93.015625 C-12.77463756 96.09417659 -12.77463756 96.09417659 -13.12890625 99.703125 C-10.75432918 105.02217764 -7.01895541 106.38940737 -1.70214844 108.43945312 C9.68926558 112.51265192 21.47881307 115.42705467 33.1640625 118.51953125 C134.36907826 145.33638352 134.36907826 145.33638352 156.94140625 183.4609375 C169.34421811 206.2535394 168.93820837 230.86576684 161.80029297 255.37792969 C156.66536031 271.90972037 147.69876955 285.14044031 135.43359375 297.203125 C134.59828125 298.03714844 133.76296875 298.87117188 132.90234375 299.73046875 C103.3243891 327.81992244 60.13996196 333.11770709 21.25390625 332.33496094 C-30.54181063 330.54753206 -81.65845434 312.38115668 -127.56640625 289.203125 C-126.95201533 283.80391574 -125.13816876 279.31712067 -123.0234375 274.37109375 C-122.66283234 273.51352478 -122.30222717 272.65595581 -121.93069458 271.7723999 C-120.75293344 268.97582601 -119.56605403 266.18322558 -118.37890625 263.390625 C-117.56464542 261.46254898 -116.75092894 259.53424298 -115.93774414 257.60571289 C-113.88213872 252.73504567 -111.81890006 247.86765456 -109.7532959 243.0012207 C-108.26931597 239.50273382 -106.78969314 236.00241593 -105.31056213 232.50187683 C-102.57743266 226.03394718 -99.84069906 219.56754252 -97.09375 213.10546875 C-96.62702881 212.00710693 -96.16030762 210.90874512 -95.67944336 209.77709961 C-95.01285183 208.23556101 -94.31749686 206.70530622 -93.56640625 205.203125 C-88.24204857 206.74371816 -83.70742519 209.18187805 -78.87890625 211.828125 C-46.16635785 229.30361226 -7.75886098 242.33240465 29.62109375 242.515625 C31.03708862 242.52396362 31.03708862 242.52396362 32.48168945 242.5324707 C41.83438545 242.4351421 50.0034947 241.22045874 57.43359375 235.203125 C59.92461781 232.24503392 60.38509265 230.54263271 60.93359375 226.703125 C60.44063947 223.25244504 59.93444276 221.65062392 57.28295898 219.37719727 C49.00043749 214.11902619 39.01644028 211.78823939 29.62109375 209.390625 C28.31097408 209.0482186 27.00108327 208.70493546 25.69140625 208.36083984 C19.01937314 206.61420262 12.33395202 204.9246939 5.640625 203.26171875 C-35.51798738 192.98118422 -85.20348938 180.40874278 -108.8203125 141.6015625 C-120.50240356 121.34134311 -122.88238564 97.02482933 -116.89453125 74.49609375 C-109.52305181 49.5181192 -92.24410117 29.76138136 -69.56640625 17.203125 C-48.16352253 6.12142886 -24.11679764 0.14530595 0 0 Z " fill="#49917A" transform="translate(2313.56640625,392.796875)"/>
<path d="M0 0 C0.79074921 -0.00701431 1.58149841 -0.01402863 2.39620972 -0.02125549 C4.93867762 -0.03867264 7.48091209 -0.04510952 10.0234375 -0.046875 C11.33066772 -0.04788712 11.33066772 -0.04788712 12.66430664 -0.04891968 C26.45358624 -0.03197914 39.82224143 0.616698 53.3984375 3.203125 C54.30803223 3.36941406 55.21762695 3.53570312 56.15478516 3.70703125 C91.16715371 10.24122134 129.53028377 22.5827205 158.3984375 44.203125 C158.7284375 44.863125 159.0584375 45.523125 159.3984375 46.203125 C158.06933594 48.85986328 158.06933594 48.85986328 156.0078125 52.2734375 C155.44987251 53.2053315 155.44987251 53.2053315 154.88066101 54.15605164 C153.643959 56.21794203 152.39619058 58.27290668 151.1484375 60.328125 C150.28961566 61.75560431 149.43163439 63.18358964 148.57446289 64.61206055 C146.77628802 67.60739413 144.97441232 70.60045804 143.17041016 73.59228516 C140.41802273 78.16312124 137.6915155 82.74900239 134.97265625 87.33984375 C134.32156387 88.4390918 134.32156387 88.4390918 133.65731812 89.56054688 C132.80149817 91.005851 131.94579337 92.45122332 131.09020996 93.89666748 C129.08918815 97.27717718 127.08675841 100.65684261 125.08203125 104.03515625 C124.41743896 105.15639893 123.75284668 106.2776416 123.06811523 107.43286133 C121.89146071 109.38512027 120.66284138 111.30651918 119.3984375 113.203125 C115.43402011 111.76810737 112.12529583 109.85894385 108.5859375 107.578125 C78.45152557 88.74843727 38.99816317 77.18307892 3.5546875 85.2734375 C-0.53264832 86.47738048 -3.91554369 88.07657569 -7.6015625 90.203125 C-9.0865625 90.698125 -9.0865625 90.698125 -10.6015625 91.203125 C-12.58938941 94.86491142 -13.45556184 98.10392816 -12.6015625 102.203125 C-7.55398882 106.54092204 -1.216742 108.67288884 5.02734375 110.65234375 C5.93778946 110.94807785 6.84823517 111.24381195 7.78627014 111.54850769 C16.93531769 114.4687853 26.20017266 116.90848944 35.5017395 119.28768921 C61.46517972 125.95614265 87.37334528 133.0557882 111.3984375 145.203125 C112.11128906 145.56229004 112.82414062 145.92145508 113.55859375 146.29150391 C123.72764069 151.50477912 132.75758708 157.73291611 141.3984375 165.203125 C142.24148438 165.93144531 143.08453125 166.65976562 143.953125 167.41015625 C157.57844109 180.1161171 165.80739389 197.91595023 166.6171875 216.48046875 C167.43877633 246.43734034 157.79117047 272.54792271 137.99609375 294.91796875 C113.90918062 320.25412211 77.2168904 331.02631975 43.13769531 332.32763672 C-8.78108834 333.50661051 -58.88694359 320.60195021 -106.1015625 299.453125 C-106.71489441 299.17876617 -107.32822632 298.90440735 -107.96014404 298.62173462 C-115.02213137 295.44777965 -121.91632599 292.11376988 -128.6015625 288.203125 C-128.28070679 287.43464233 -128.28070679 287.43464233 -127.95336914 286.65063477 C-121.92074722 272.19705448 -115.9134447 257.73302765 -109.9140625 243.265625 C-109.55506866 242.40011017 -109.19607483 241.53459534 -108.82620239 240.64285278 C-108.11641128 238.93147991 -107.40687997 237.21999925 -106.69761658 235.50840759 C-106.0063221 233.84171409 -105.31368623 232.17557626 -104.61964417 230.51002502 C-102.91890288 226.42152108 -101.24783703 222.32486591 -99.63037109 218.20263672 C-99.31641891 217.41207382 -99.00246674 216.62151093 -98.67900085 215.80699158 C-98.08704638 214.31304718 -97.50388902 212.81557708 -96.9309845 211.31422424 C-96.23755436 209.57506946 -95.42868879 207.88281747 -94.6015625 206.203125 C-91.6015625 205.203125 -91.6015625 205.203125 -89.14746094 206.23193359 C-87.69388184 207.0336499 -87.69388184 207.0336499 -86.2109375 207.8515625 C-85.12095459 208.44050293 -84.03097168 209.02944336 -82.90795898 209.63623047 C-82.32891815 209.95315857 -81.74987732 210.27008667 -81.15328979 210.59661865 C-52.80680073 226.03861091 -22.38036635 235.75190104 9.3984375 241.203125 C10.54441406 241.40550781 11.69039062 241.60789062 12.87109375 241.81640625 C17.96590951 242.37497409 23.02648869 242.42764267 28.1484375 242.453125 C29.169375 242.47375 30.1903125 242.494375 31.2421875 242.515625 C40.54982291 242.56287188 50.0707694 241.43164288 57.3984375 235.203125 C59.77899429 232.26710496 60.36123012 230.46357667 60.8984375 226.703125 C60.25565619 222.20365582 58.79657639 221.13841092 55.3984375 218.203125 C43.55034973 211.62788217 29.37675072 209.18898048 16.3611145 205.96856689 C-83.41252359 181.19355856 -83.41252359 181.19355856 -108.9140625 141.890625 C-120.06619054 122.92074256 -123.04992208 99.34718234 -117.9140625 77.953125 C-113.37462589 60.69145396 -105.10801738 46.72697412 -92.6015625 34.203125 C-91.80878906 33.39875 -91.01601562 32.594375 -90.19921875 31.765625 C-67.13722396 9.6629478 -31.25434611 0.18727637 0 0 Z " fill="#49917A" transform="translate(2769.6015625,392.796875)"/>
<path d="M0 0 C0.81299057 -0.00701431 1.62598114 -0.01402863 2.46360779 -0.02125549 C5.07735802 -0.03867479 7.69088132 -0.04510938 10.3046875 -0.046875 C11.6474324 -0.04788712 11.6474324 -0.04788712 13.01730347 -0.04891968 C26.94941328 -0.03224646 40.46519901 0.56868896 54.1796875 3.203125 C55.57380859 3.46053467 55.57380859 3.46053467 56.99609375 3.72314453 C93.24428741 10.54712311 127.96909257 24.62557 159.1796875 44.203125 C158.50880495 47.69548095 157.10753102 50.33660375 155.328125 53.40234375 C154.43299194 54.95078979 154.43299194 54.95078979 153.51977539 56.53051758 C152.87129639 57.63935303 152.22281738 58.74818848 151.5546875 59.890625 C150.88057482 61.05025626 150.20666837 62.21000744 149.53295898 63.36987305 C143.05630988 74.49689432 136.44390217 85.54211918 129.77148438 96.55273438 C128.35719273 98.90757336 126.97172417 101.27556652 125.6015625 103.65625 C125.23538818 104.28233154 124.86921387 104.90841309 124.49194336 105.5534668 C123.58318124 107.10979128 122.68734134 108.67364322 121.79296875 110.23828125 C121.26058594 110.88667969 120.72820312 111.53507812 120.1796875 112.203125 C116.19369365 112.203125 115.55769444 112.11472949 112.484375 110.078125 C111.77812988 109.62268311 111.07188477 109.16724121 110.34423828 108.69799805 C109.58868652 108.20468994 108.83313477 107.71138184 108.0546875 107.203125 C79.49779414 89.24010448 41.29684779 77.82985211 7.4921875 84.390625 C0.59151587 86.14656285 -7.02632488 88.29363793 -11.5078125 94.203125 C-12.95212616 97.05114392 -12.95212616 97.05114392 -13.0078125 99.765625 C-10.75429107 104.39127424 -5.78872005 106.99874186 -1.08911133 108.76660156 C0.28080832 109.2237409 1.65598443 109.66533277 3.03515625 110.09375 C3.80313034 110.34086731 4.57110443 110.58798462 5.36235046 110.84259033 C15.17686711 113.93251897 25.15064047 116.47149391 35.10452271 119.06619263 C108.00436921 138.15227043 108.00436921 138.15227043 134.1796875 159.203125 C134.9855127 159.82453369 134.9855127 159.82453369 135.80761719 160.45849609 C151.50034867 172.57572529 162.63172814 188.47458814 166.1796875 208.203125 C166.59346329 212.75465871 166.65670862 217.25979928 166.6171875 221.828125 C166.61033936 223.05217041 166.60349121 224.27621582 166.59643555 225.53735352 C166.1747609 249.52858769 157.89037794 271.92808633 142.1796875 290.203125 C141.70015625 290.81542969 141.220625 291.42773438 140.7265625 292.05859375 C120.69058874 317.21871022 85.33031407 327.95118564 54.66894531 331.49316406 C-9.30120163 337.98558712 -71.00153745 316.3109766 -127.8203125 289.203125 C-127.2283756 285.8428876 -126.3962297 282.8652571 -125.07714844 279.72119141 C-124.5389447 278.42884079 -124.5389447 278.42884079 -123.98986816 277.11038208 C-123.59875854 276.18450287 -123.20764893 275.25862366 -122.8046875 274.3046875 C-122.39682007 273.32893768 -121.98895264 272.35318787 -121.56872559 271.34786987 C-120.24028847 268.17277195 -118.90536738 265.00044527 -117.5703125 261.828125 C-116.65941862 259.65446953 -115.74893829 257.48064071 -114.83886719 255.30664062 C-112.58658899 249.92905917 -110.3292271 244.55362952 -108.0703125 239.17883301 C-106.24414501 234.83152004 -104.42261068 230.48227181 -102.6015625 226.1328125 C-99.67911107 219.15430021 -96.75201173 212.17775839 -93.8203125 205.203125 C-90.81836998 205.83462737 -88.45562844 206.82144069 -85.78515625 208.3203125 C-50.09817307 227.92174792 3.56646762 250.99523045 45.49609375 241.37890625 C48.49092903 240.46239807 51.32328708 239.48197094 54.1796875 238.203125 C54.91058594 237.91824219 55.64148438 237.63335938 56.39453125 237.33984375 C59.38151677 235.43784641 59.75119912 232.72143576 60.69921875 229.453125 C61.31116555 226.58742293 61.40920735 224.89269967 60.1796875 222.203125 C45.96030088 209.69987125 22.12583197 207.14499217 4.28488159 202.76748657 C-36.60910739 192.72040136 -85.15389847 179.68967757 -108.86669922 141.47875977 C-121.28159416 120.41726243 -122.10960297 96.70085385 -116.41894531 73.43994141 C-110.17278594 50.10090707 -93.23828913 31.29068503 -72.75048828 19.29394531 C-50.75787014 6.8650283 -25.26603656 0.14701011 0 0 Z " fill="#49917A" transform="translate(127.8203125,392.796875)"/>
<path d="M0 0 C32.01 0 64.02 0 97 0 C97 100.32 97 200.64 97 304 C64.99 304 32.98 304 0 304 C0 203.68 0 103.36 0 0 Z " fill="#4A927A" transform="translate(2513,406)"/>
<path d="M0 0 C21.09464303 20.99717603 32.26423755 49.00845377 32.37411499 78.58163452 C32.37147269 80.44317675 32.36850166 82.30471853 32.36523438 84.16625977 C32.372589 86.16378754 32.38117924 88.16131108 32.39089966 90.15882874 C32.41298277 95.54770575 32.41605282 100.93642924 32.41415215 106.32534528 C32.41403178 110.84489396 32.42262312 115.36441089 32.43092966 119.88395065 C32.450118 130.56108338 32.45306497 141.23813796 32.44628906 151.9152832 C32.43965872 162.87841128 32.46248286 173.84120203 32.49960279 184.80426174 C32.53044223 194.26043984 32.54164426 203.71651025 32.53776598 213.17273754 C32.53571237 218.80100271 32.54096021 224.42900546 32.56565857 230.05722237 C32.58815857 235.3590439 32.58585749 240.66032316 32.56573105 245.96214867 C32.56236118 247.89002542 32.56723244 249.81794038 32.58171463 251.74576569 C32.65224726 261.84484435 32.0141876 271.3298387 29.71936035 281.19200134 C29.42866299 282.44703566 29.42866299 282.44703566 29.13209295 283.7274242 C27.47145351 290.20444895 25.063894 294.76283699 21.9453125 301 C13.6953125 300.34 5.4453125 299.68 -3.0546875 299 C-1.7346875 295.7 -0.4146875 292.4 0.9453125 289 C6.42564201 274.84500526 8.27597973 262.02475936 8.9453125 247 C8.05328125 247.16113281 7.16125 247.32226562 6.2421875 247.48828125 C-2.37716181 248.82611864 -12.77034799 249.12399756 -20.0546875 243.8125 C-22.85819061 239.87007375 -24.23077657 236.60171601 -23.8984375 231.69140625 C-23.22829792 227.7672235 -22.54075899 225.52657745 -19.8046875 222.5625 C-13.42135949 218.93560908 -7.83499969 218.74333573 -0.6796875 218.875 C4.0846875 218.936875 4.0846875 218.936875 8.9453125 219 C8.9453125 206.46 8.9453125 193.92 8.9453125 181 C1.0253125 181 -6.8946875 181 -15.0546875 181 C-13.94629055 171.02442748 -13.94629055 171.02442748 -13.0546875 167.5625 C-11.91118209 162.73246967 -11.47238066 157.9427024 -11.0546875 153 C-4.4546875 153 2.1453125 153 8.9453125 153 C8.9453125 139.8 8.9453125 126.6 8.9453125 113 C1.64562698 113.15756477 1.64562698 113.15756477 -5.65283203 113.36035156 C-11.80498189 113.42723448 -15.38782451 113.12867451 -20.0546875 109 C-23.35442925 105.70025825 -23.82060763 102.60357075 -24.0546875 98 C-23.38232177 93.66697644 -22.44568982 91.00238938 -19.1796875 88.125 C-14.99358547 85.27845062 -12.06317257 84.87189948 -7.0703125 84.90234375 C-6.13574219 84.90556641 -5.20117188 84.90878906 -4.23828125 84.91210938 C-3.27019531 84.92048828 -2.30210937 84.92886719 -1.3046875 84.9375 C-0.32113281 84.94201172 0.66242188 84.94652344 1.67578125 84.95117188 C4.09902041 84.96293517 6.52213523 84.97937316 8.9453125 85 C8.50337263 58.12202079 -1.60240458 33.95421698 -20.359375 14.625 C-39.82633768 -3.75691885 -63.96660973 -11.64728613 -90.48828125 -11.27734375 C-114.23828284 -10.45414142 -136.39857935 0.34389185 -153.0546875 17 C-153.75078125 17.69609375 -154.446875 18.3921875 -155.1640625 19.109375 C-171.23150118 36.17324398 -180.53188205 60.6174672 -180.0546875 84 C-179.46042969 84.0093457 -178.86617187 84.01869141 -178.25390625 84.02832031 C-175.52004105 84.08252993 -172.78779551 84.16607278 -170.0546875 84.25 C-168.65283203 84.27126953 -168.65283203 84.27126953 -167.22265625 84.29296875 C-160.09901234 84.54204721 -154.08740774 85.77773475 -149.0546875 91.125 C-147.21727336 96.40756564 -147.10569857 101.76987601 -149.3046875 106.9375 C-152.21119495 110.36302664 -154.65003234 112.14168958 -159.0546875 113 C-160.78754398 113.07952806 -162.52316136 113.10774143 -164.2578125 113.09765625 C-165.2375 113.09443359 -166.2171875 113.09121094 -167.2265625 113.08789062 C-168.24234375 113.07951172 -169.258125 113.07113281 -170.3046875 113.0625 C-171.8515625 113.05573242 -171.8515625 113.05573242 -173.4296875 113.04882812 C-175.97141323 113.03706088 -178.51302069 113.02062011 -181.0546875 113 C-180.89097656 114.15371094 -180.72726562 115.30742187 -180.55859375 116.49609375 C-179.76240702 123.66177434 -179.94863994 130.86400641 -179.9921875 138.0625 C-179.99721336 139.51497241 -180.00177434 140.96744651 -180.00585938 142.41992188 C-180.01591861 145.94669117 -180.03550865 149.47322191 -180.0546875 153 C-173.4546875 153 -166.8546875 153 -160.0546875 153 C-159.7659375 155.206875 -159.4771875 157.41375 -159.1796875 159.6875 C-158.23885512 166.80824808 -157.17085553 173.90436035 -156.0546875 181 C-164.3046875 181 -172.5546875 181 -181.0546875 181 C-180.7246875 183.31 -180.3946875 185.62 -180.0546875 188 C-179.97712144 190.48728501 -179.94670564 192.97637101 -179.95703125 195.46484375 C-179.9584462 196.14301651 -179.95986115 196.82118927 -179.96131897 197.51991272 C-179.96686005 199.65915578 -179.97940097 201.79828925 -179.9921875 203.9375 C-179.99721014 205.39908702 -180.0017717 206.86067569 -180.00585938 208.32226562 C-180.01681005 211.88154526 -180.03403305 215.44076191 -180.0546875 219 C-179.46042969 218.97905273 -178.86617187 218.95810547 -178.25390625 218.93652344 C-175.52101045 218.85258146 -172.78838693 218.80109719 -170.0546875 218.75 C-169.12011719 218.71648437 -168.18554688 218.68296875 -167.22265625 218.6484375 C-161.01441992 218.56160902 -156.17449246 219.29247206 -151.0546875 223 C-148.0361187 227.05620182 -147.52032489 230.8847096 -147.703125 235.8203125 C-148.41933375 240.26080674 -150.8375756 242.93041681 -154.1171875 245.8125 C-162.09212071 249.03640917 -171.5953238 248.13286959 -180.0546875 248 C-180.63636297 264.86858857 -176.36673179 280.89977441 -168.97265625 295.9609375 C-168.0546875 298 -168.0546875 298 -168.0546875 300 C-173.49921668 301.07624414 -178.90051339 301.32192966 -184.4296875 301.5625 C-185.35652344 301.60568359 -186.28335937 301.64886719 -187.23828125 301.69335938 C-189.51029044 301.79876186 -191.78239675 301.90088606 -194.0546875 302 C-195.18688177 298.9053976 -196.27930402 295.79792742 -197.3671875 292.6875 C-197.67591797 291.84509766 -197.98464844 291.00269531 -198.30273438 290.13476562 C-204.60794933 271.88282759 -204.52062449 253.04033673 -204.56640625 233.9609375 C-204.58172934 231.26459712 -204.60134595 228.56829205 -204.62080383 225.87197876 C-204.66416218 219.52291012 -204.69285926 213.17386577 -204.71612722 206.82469523 C-204.74293711 199.71900351 -204.78710841 192.61345362 -204.83240521 185.50785971 C-205.7833182 35.22506005 -205.7833182 35.22506005 -168.0546875 -3 C-121.40491619 -49.73367378 -45.90209313 -43.96193257 0 0 Z " fill="#258380" transform="translate(1731.0546875,181)"/>
<path d="M0 0 C0.74475586 0.1556543 1.48951172 0.31130859 2.25683594 0.47167969 C25.39270608 5.53549399 46.91950059 17.90716146 65 33 C63.52259375 37.95527562 60.67684009 40.74937065 57.0625 44.25 C56.47911865 44.82282715 55.8957373 45.3956543 55.29467773 45.98583984 C50.12483727 51.00025455 44.67338478 55.56500754 39 60 C37.90899833 60.88007691 36.8192085 61.76165767 35.73046875 62.64453125 C9.08712378 84.13097773 -20.66230182 99.92400429 -55.8515625 96.640625 C-73.98201238 94.23212692 -93.56799472 87.89557452 -109 78 C-108.42070895 74.42539856 -107.13448621 72.76863374 -104.578125 70.25 C-103.88203125 69.5590625 -103.1859375 68.868125 -102.46875 68.15625 C-101.7365625 67.4446875 -101.004375 66.733125 -100.25 66 C-99.53328125 65.2884375 -98.8165625 64.576875 -98.078125 63.84375 C-96.07507976 61.87016131 -94.04196262 59.9331433 -92 58 C-91.14921875 57.154375 -90.2984375 56.30875 -89.421875 55.4375 C-85.88746455 53.33965638 -83.93983898 54.01606947 -80 55 C-77.03056965 55.89521126 -74.11064885 56.90226968 -71.1875 57.9375 C-48.67770912 65.58412848 -29.49540871 64.23605878 -8.01367188 53.99560547 C5.30458168 48.03966249 5.30458168 48.03966249 15 38 C13.824375 37.62875 12.64875 37.2575 11.4375 36.875 C7.23875886 35.4993255 3.24339941 33.81149592 -0.8125 32.0625 C-20.0730645 24.08577747 -40.57393441 22.27646567 -60.19189453 29.84570312 C-75.5039299 36.19566452 -87.30615113 45.66517216 -99.2109375 57.07421875 C-124.2327067 80.92637981 -153.43030431 97.67827593 -188.80078125 97.2109375 C-196.06482702 96.99576555 -202.97911184 95.8465193 -210 94 C-210.68175293 93.82259277 -211.36350586 93.64518555 -212.06591797 93.46240234 C-244.84079551 84.55265353 -274.63445556 62.14439592 -298 38 C-296.44716475 33.52107383 -292.85126562 31.20998823 -289.1875 28.5 C-288.48826416 27.98099121 -287.78902832 27.46198242 -287.06860352 26.92724609 C-257.9223443 5.81947245 -223.20388048 -6.34289613 -186.98754883 -1.1796875 C-165.37147216 2.36756611 -141.95113961 10.81639339 -125 25 C-125.32362175 27.99350123 -125.96457099 28.96634244 -128.1875 31.078125 C-129.115625 31.79484375 -130.04375 32.5115625 -131 33.25 C-135.56698762 36.81592289 -139.7559273 40.54853782 -143.83203125 44.6640625 C-146 46 -146 46 -148.796875 45.9453125 C-152.61134985 44.81957724 -155.95673924 43.1298937 -159.4375 41.25 C-185.41304591 27.74985011 -210.91125691 27.28591511 -238.48461914 35.97192383 C-244.23128082 37.63958777 -244.23128082 37.63958777 -249 41 C-229.68685947 55.84558935 -210.41014085 68.14873772 -185 66 C-158.97932517 62.32628213 -136.75576649 47.16732504 -118.0625 29.4375 C-100.69042698 13.09754614 -77.34312851 2.10306772 -54 -2 C-52.97003906 -2.185625 -51.94007813 -2.37125 -50.87890625 -2.5625 C-34.02316821 -4.46365072 -16.57148086 -3.52930813 0 0 Z " fill="#28857E" transform="translate(1762,493)"/>
<path d="M0 0 C1.27808551 0.55626088 2.54005098 1.15073255 3.78515625 1.77734375 C4.48060547 2.12603516 5.17605469 2.47472656 5.89257812 2.83398438 C6.60865234 3.19814453 7.32472656 3.56230469 8.0625 3.9375 C8.78244141 4.29779297 9.50238281 4.65808594 10.24414062 5.02929688 C13.29825417 6.56911457 16.14642656 8.09761771 19 10 C19.28606944 12.99035306 19.37798899 15.77265438 19.34057617 18.76416016 C19.34123329 20.12522133 19.34123329 20.12522133 19.34190369 21.51377869 C19.33980839 24.52242314 19.31644244 27.53051502 19.29296875 30.5390625 C19.28737543 32.62128393 19.28310409 34.7035093 19.28010559 36.78573608 C19.26863603 42.27346647 19.23915067 47.76095969 19.20599365 53.24859619 C19.17533823 58.84538565 19.16160995 64.44221333 19.14648438 70.0390625 C19.11428301 81.02614603 19.06306119 92.01305331 19 103 C19.74048584 102.98428955 20.48097168 102.9685791 21.24389648 102.95239258 C24.64168473 102.88952461 28.03935004 102.85084559 31.4375 102.8125 C32.60216797 102.78736328 33.76683594 102.76222656 34.96679688 102.73632812 C41.67589237 102.67963154 47.94217279 102.8173193 54 106 C58.06536489 110.37026726 58.81651648 114.22026926 59 120 C57.95361368 124.99940133 54.9635228 127.08802406 51 130 C48.27360059 130.9087998 46.6639284 131.13078619 43.85871887 131.14717102 C43.0163266 131.15432632 42.17393433 131.16148163 41.30601501 131.16885376 C40.38494461 131.17154266 39.46387421 131.17423157 38.51489258 131.17700195 C37.54219421 131.18357315 36.56949585 131.19014435 35.56732178 131.19691467 C32.3430575 131.21665076 29.11883983 131.22831175 25.89453125 131.23828125 C24.24220269 131.24439454 24.24220269 131.24439454 22.55649376 131.25063133 C16.72475751 131.2714946 10.8930448 131.28579455 5.0612793 131.29516602 C-0.95667796 131.30622359 -6.97426477 131.3406156 -12.99209118 131.38033772 C-17.62387266 131.40650922 -22.25556601 131.41485841 -26.88741493 131.41844749 C-29.10532441 131.42331299 -31.32322996 131.43492586 -33.54106712 131.45348549 C-36.65031466 131.47788484 -39.75860556 131.47691 -42.86791992 131.4699707 C-44.2343438 131.48918579 -44.2343438 131.48918579 -45.62837219 131.50878906 C-51.4942422 131.4612328 -56.15364679 130.45576341 -61 127 C-64.05056084 122.71014881 -64.55666413 119.19553189 -64 114 C-62.17419996 108.82689989 -59.76999961 106.62836713 -55 104 C-44.9699797 101.49249493 -34.33870828 103 -24 103 C-24 72.31 -24 41.62 -24 10 C-4 -1 -4 -1 0 0 Z " fill="#62A26D" transform="translate(1648,578)"/>
<path d="M0 0 C0.66 0 1.32 0 2 0 C14.15802258 26.74764967 15.67513533 55.25897197 5.625 82.9375 C-0.98306327 98.87694958 -9.92918514 111.51820522 -26.25 118.3125 C-32.24782315 120.63518642 -37.77834297 121.18820702 -44.1875 121.1875 C-44.95070557 121.19322021 -45.71391113 121.19894043 -46.50024414 121.20483398 C-50.61062248 121.18779298 -54.00738981 120.86795618 -57.9375 119.5625 C-65.12527121 117.68742925 -72.86357234 122.50272274 -79.27929688 125.43920898 C-81 126 -81 126 -83 125 C-75.15910297 119.17288527 -67.29865906 113.44190189 -59.1328125 108.07421875 C-55.53869211 105.69457046 -51.98595686 103.25948661 -48.4375 100.8125 C-47.08465464 99.88018044 -45.73178953 98.94788953 -44.37890625 98.015625 C-43.67652832 97.53158203 -42.97415039 97.04753906 -42.25048828 96.54882812 C-38.13009182 93.71309422 -34.00267541 90.88762369 -29.875 88.0625 C-29.08150146 87.51891846 -28.28800293 86.97533691 -27.47045898 86.4152832 C-23.33134544 83.5827938 -19.18033767 80.77131012 -15 78 C-15.81005493 77.78851318 -15.81005493 77.78851318 -16.63647461 77.57275391 C-19.07242514 76.93181099 -21.50491267 76.27858573 -23.9375 75.625 C-24.78763672 75.40328125 -25.63777344 75.1815625 -26.51367188 74.953125 C-27.32255859 74.73398437 -28.13144531 74.51484375 -28.96484375 74.2890625 C-29.7137085 74.09006348 -30.46257324 73.89106445 -31.23413086 73.68603516 C-33 73 -33 73 -34 71 C-33.20239258 69.33032227 -33.20239258 69.33032227 -31.89453125 67.31640625 C-31.41081055 66.56206299 -30.92708984 65.80771973 -30.42871094 65.03051758 C-29.89536133 64.21607178 -29.36201172 63.40162598 -28.8125 62.5625 C-27.70939463 60.84911333 -26.60653768 59.1355667 -25.50390625 57.421875 C-24.92914551 56.53435547 -24.35438477 55.64683594 -23.76220703 54.73242188 C-20.89101458 50.28044266 -18.07258916 45.79538544 -15.25 41.3125 C-14.23462715 39.70426786 -13.21902552 38.09618012 -12.203125 36.48828125 C-11.77676758 35.81321533 -11.35041016 35.13814941 -10.91113281 34.44262695 C-10.61045898 33.96656006 -10.30978516 33.49049316 -10 33 C-15.26337296 37.18792416 -20.50212192 41.40394368 -25.71533203 45.65405273 C-33.15615019 51.71902487 -40.65501535 57.70063054 -48.22070312 63.60888672 C-51.44375766 66.1287776 -54.65878237 68.65889317 -57.875 71.1875 C-59.05986345 72.1185308 -60.24475613 73.0495244 -61.4296875 73.98046875 C-62.70199219 74.98013672 -62.70199219 74.98013672 -64 76 C-59.05 76.99 -54.1 77.98 -49 79 C-50.51704394 83.55113181 -51.62213576 86.32626687 -54.1171875 90.1875 C-54.72433594 91.13367188 -55.33148437 92.07984375 -55.95703125 93.0546875 C-56.58996094 94.02664063 -57.22289063 94.99859375 -57.875 96 C-58.81279297 97.45792969 -58.81279297 97.45792969 -59.76953125 98.9453125 C-62.80605703 103.65738421 -65.87239913 108.34789017 -69 113 C-75.23138291 110.31405909 -78.53843366 104.45477757 -81.375 98.5 C-84.83166795 89.07404411 -84.26205348 77.61389488 -80.3125 68.453125 C-72.88403448 54.5689692 -60.25034285 48.46849104 -46.7746582 41.56982422 C-26.97602051 31.39572457 -10.43409639 20.33927545 0 0 Z " fill="#94C64E" transform="translate(2611,253)"/>
<path d="M0 0 C15.71159974 -1.1426618 36.15795148 4.94788698 48.140625 15.21875 C58.94951277 25.57348282 62.93638061 37.52754799 63.36076355 52.54293823 C63.36928597 54.80840461 63.36188688 57.0739733 63.34057617 59.33935547 C63.34123329 61.21510757 63.34123329 61.21510757 63.34190369 63.12875366 C63.34019044 66.50820657 63.32530476 69.88708711 63.30418181 73.26643896 C63.28523307 76.8164531 63.28365042 80.36647751 63.28010559 83.91653442 C63.27083791 90.61684083 63.24629691 97.31699772 63.21605712 104.01723874 C63.18234718 111.65463992 63.1659857 119.29204882 63.15097082 126.92950606 C63.1197416 142.61975684 63.06708569 158.30985902 63 174 C58.7435123 172.62792778 55.03506769 171.11261913 51.1875 168.8125 C50.23230469 168.26207031 49.27710938 167.71164062 48.29296875 167.14453125 C44.85676031 163.93076901 45.09509713 160.44244659 44.91671562 155.86094856 C44.87718025 153.43201453 44.87624536 151.00564723 44.88647461 148.57641602 C44.88632858 147.6585582 44.88618256 146.74070038 44.8860321 145.79502869 C44.88672507 142.78129661 44.89448849 139.76762744 44.90234375 136.75390625 C44.90421012 134.65640802 44.90563299 132.55890935 44.90663147 130.46141052 C44.9104394 124.95576767 44.92025491 119.45015142 44.93133545 113.94451904 C44.9415867 108.32043823 44.94613704 102.6963531 44.95117188 97.07226562 C44.96187877 86.04816543 44.97893441 75.02408493 45 64 C43.90220215 63.68772461 42.8044043 63.37544922 41.67333984 63.05371094 C28.68129235 59.32689471 18.3879356 54.8028947 11 43 C3.66512803 29.75397815 -1.19125067 15.22153628 0 0 Z " fill="#D6944E" transform="translate(1578,334)"/>
<path d="M0 0 C1.1838385 15.81739778 -5.03228883 35.96528265 -15.3515625 48.33203125 C-22.71747214 55.7852147 -30.66177112 60.55400829 -41.17797852 61.54541016 C-42.53162254 61.67479477 -42.53162254 61.67479477 -43.91261292 61.80679321 C-44.94586952 61.90243057 -44.94586952 61.90243057 -46 62 C-45.98747192 62.76325089 -45.97494385 63.52650177 -45.96203613 64.31288147 C-45.84243982 71.61961293 -45.7246886 78.92637098 -45.60884857 86.23316288 C-45.54927928 89.98675716 -45.48907453 93.74033868 -45.42724609 97.49389648 C-44.95776103 126.05853225 -44.95776103 126.05853225 -44.90625 139.93359375 C-44.8997644 140.80782486 -44.89327881 141.68205597 -44.88659668 142.58277893 C-44.88333661 147.04252371 -45.0209134 151.48767056 -45.29907227 155.93896484 C-45.37944481 157.28116592 -45.37944481 157.28116592 -45.46144104 158.65048218 C-46.11013963 161.48049525 -47.00010535 162.34736289 -49.30859375 164.04296875 C-50.66306 164.79836942 -52.04094527 165.51307883 -53.4375 166.1875 C-54.13166016 166.56712891 -54.82582031 166.94675781 -55.54101562 167.33789062 C-60.51381668 170 -60.51381668 170 -63 170 C-63.72902886 165.43267019 -64.12222763 161.06230445 -64.10864258 156.43896484 C-64.10708664 155.15696198 -64.1055307 153.87495911 -64.10392761 152.55410767 C-64.09683641 151.14804988 -64.08953032 149.74199317 -64.08203125 148.3359375 C-64.07747526 146.8397938 -64.07323706 145.3436491 -64.06929016 143.84750366 C-64.05663495 139.76167544 -64.03631842 135.6759186 -64.01386261 131.59013367 C-63.99985058 128.97208121 -63.9877168 126.35402564 -63.97601318 123.73596191 C-63.92906548 113.55500511 -63.86037817 103.37445176 -63.76426506 93.19383621 C-63.71911391 88.38949239 -63.67980644 83.58524937 -63.65356445 78.78076172 C-63.62743343 74.02109472 -63.58706393 69.26174119 -63.53681374 64.50226974 C-63.52033241 62.72034948 -63.50870312 60.93837643 -63.50238609 59.15639114 C-63.43883301 42.95648136 -61.90634477 28.46404333 -50.3671875 16.1640625 C-38.63941863 5.44263683 -15.87757882 -3.18015833 0 0 Z " fill="#D5934D" transform="translate(1713,335)"/>
<path d="M0 0 C0.83144531 -0.03738281 1.66289063 -0.07476562 2.51953125 -0.11328125 C9.08156745 0.93395439 13.86704479 6.70483335 18.35449219 11.22070312 C19.04465927 11.90736557 19.73482635 12.59402802 20.44590759 13.30149841 C22.71376926 15.56059515 24.97428108 17.82688407 27.234375 20.09375 C28.81255355 21.67058071 30.39102884 23.24711447 31.9697876 24.82336426 C35.27136934 28.12200209 38.56931803 31.42421872 41.86474609 34.72900391 C46.09040837 38.9660789 50.32501068 43.19408725 54.56235886 47.41947174 C57.82071594 50.67060646 61.07430022 53.92648387 64.32645416 57.18382263 C65.88631607 58.74501902 67.4476659 60.30473022 69.01052094 61.8629303 C71.19124978 64.03858583 73.36547425 66.22053956 75.53808594 68.40429688 C76.18537155 69.04753403 76.83265717 69.69077118 77.4995575 70.35350037 C78.0910408 70.95062332 78.68252411 71.54774628 79.29193115 72.16296387 C80.06284403 72.93500782 80.06284403 72.93500782 80.8493309 73.72264862 C84.5082867 78.06977928 84.61397423 82.11378833 84.50390625 87.6171875 C83.93078021 92.49937224 81.65755698 95.12828743 77.9375 98.125 C72.84203243 100.32531554 68.94827838 100.81557954 63.6875 99.3125 C53.57983694 94.19325364 45.43437964 83.72310516 37.51171875 75.8046875 C36.09551566 74.39170239 34.67923941 72.97879061 33.26289368 71.56594849 C30.30849805 68.61751324 27.35614868 65.66704632 24.4050293 62.71533203 C20.62620947 58.93641014 16.84052974 55.16444118 13.05308819 51.39416313 C10.13202527 48.48421689 7.21551676 45.56973889 4.30027199 42.653965 C2.90604828 41.26091964 1.51020661 39.86949161 0.11270714 38.47973251 C-1.83760703 36.53922186 -3.78147633 34.59247048 -5.72387695 32.64404297 C-6.29897003 32.0745694 -6.87406311 31.50509583 -7.46658325 30.91836548 C-12.07289653 26.27567059 -15.25978014 22.21382931 -15.875 15.43359375 C-15.72290094 10.27173197 -13.97866202 6.44950797 -10.3125 2.875 C-6.82958252 0.69817658 -4.03807618 0.11785476 0 0 Z " fill="#01609E" transform="translate(1428.8125,111.6875)"/>
<path d="M0 0 C6.69641876 6.23984475 9.63688499 15.74487407 13 24.0625 C13.77356292 25.95765491 14.54908086 27.85200362 15.32453918 29.74638367 C15.88380369 31.11322154 16.44236963 32.48034543 17.00028992 33.84773254 C19.33176848 39.55823249 21.69493038 45.25522696 24.06640625 50.94921875 C24.43790802 51.84186432 24.80940979 52.73450989 25.19216919 53.65420532 C26.67415003 57.21502088 28.15613631 60.77583101 29.64099121 64.33544922 C33.39747697 73.34476942 37.11898085 82.36816004 40.71875 91.44140625 C41.01534012 92.17538132 41.31193024 92.90935638 41.61750793 93.66557312 C43.68519983 98.93435469 45.16697758 103.905747 43.75 109.5625 C41.44539834 114.08939611 38.76063681 117.42053431 33.9375 119.25 C28.41123704 120.03946614 24.22874796 120.03426589 19.36627197 116.94520569 C14.1543622 112.4864652 11.5782222 105.2714065 9.140625 99.03515625 C8.81616898 98.22471359 8.49171295 97.41427094 8.15742493 96.57926941 C7.46053233 94.83651666 6.76704632 93.09239845 6.07669067 91.3470459 C4.22644022 86.66931738 2.35183435 82.00134297 0.48046875 77.33203125 C-0.09750206 75.88695694 -0.09750206 75.88695694 -0.68714905 74.41268921 C-5.28251087 62.9435314 -10.03879506 51.54136325 -14.80383301 40.14187622 C-15.51600072 38.43796042 -16.22740042 36.73372336 -16.9379425 35.02912903 C-17.57861568 33.49219483 -18.22104301 31.95599007 -18.86564636 30.42070007 C-22.24435811 22.31099463 -24.23710864 15.45897282 -23.25 6.5625 C-21.33541145 2.80990645 -19.70690118 1.82230656 -16.0625 -0.25 C-10.24094557 -2.06327105 -5.64614097 -2.49733158 0 0 Z " fill="#01619E" transform="translate(1533.25,26.4375)"/>
<path d="M0 0 C4.55605376 2.07093353 6.8446645 4.7432782 9.3359375 8.92578125 C11.60901673 16.02581107 8.79296768 21.89996735 6.0625 28.375 C5.6286499 29.43154785 5.1947998 30.4880957 4.74780273 31.57666016 C3.47235824 34.67426118 2.18515236 37.76654653 0.89355469 40.85742188 C-0.76692298 44.83893883 -2.41354387 48.82620102 -4.0625 52.8125 C-6.25682415 58.11645937 -8.4543161 63.41901764 -10.6652832 68.71606445 C-13.94132944 76.57070969 -17.19706218 84.4278279 -20.29296875 92.35546875 C-20.78377142 93.60178991 -21.27473228 94.84804878 -21.76586914 96.09423828 C-22.63716447 98.31762995 -23.49562894 100.54611801 -24.33764648 102.78076172 C-26.92997562 109.36732217 -30.34677245 116.67338622 -37 120 C-42.22840334 120.52113171 -46.64036754 120.64273534 -51.4375 118.375 C-57.65166738 112.61552779 -57.65166738 112.61552779 -58.26635742 108 C-58.33654899 102.2301239 -57.23734004 97.94231721 -54.9375 92.6875 C-54.41555054 91.43936523 -54.41555054 91.43936523 -53.88305664 90.16601562 C-53.07181096 88.22950466 -52.25347104 86.29595684 -51.4296875 84.36474609 C-49.81758707 80.57069417 -48.23466896 76.7651851 -46.65625 72.95703125 C-44.1277076 66.86014763 -41.58732393 60.76835391 -39.0390625 54.6796875 C-36.63318655 48.92966681 -34.2432517 43.17345522 -31.87394714 37.40826416 C-30.51685406 34.10649043 -29.15514733 30.80662769 -27.79324341 27.50683594 C-27.14502775 25.93257775 -26.49905147 24.35739542 -25.85543823 22.78125 C-24.95767871 20.58346647 -24.05194674 18.38912344 -23.14453125 16.1953125 C-22.88469452 15.55312775 -22.62485779 14.91094299 -22.35714722 14.2492981 C-20.29884076 9.30711021 -17.93232755 4.75666141 -13.9375 1.125 C-9.3068128 -0.64845467 -4.88949431 -0.63275809 0 0 Z " fill="#01619E" transform="translate(1773,26)"/>
<path d="M0 0 C3.67189003 2.20870804 6.26352973 4.75120258 8.4375 8.4375 C9.7879569 14.58958143 9.1321572 18.58897431 6 24 C4.28154187 25.97177884 2.58635553 27.78513568 0.72167969 29.60302734 C-0.06678093 30.38973564 -0.06678093 30.38973564 -0.87117004 31.19233704 C-2.59994072 32.91395694 -4.33898183 34.62480196 -6.078125 36.3359375 C-7.29091143 37.54057618 -8.50295622 38.74596194 -9.71429443 39.95205688 C-12.90107577 43.12175441 -16.09631356 46.28278071 -19.29388428 49.44158936 C-24.39877338 54.48722485 -29.49112404 59.54550378 -34.58266449 64.60460281 C-36.35175214 66.35986836 -38.12468105 68.11117647 -39.89825439 69.86190796 C-44.99287039 74.90391358 -50.0221515 79.95110306 -54.64883423 85.43476868 C-56.64504164 87.74723575 -58.84787852 89.78066331 -61.125 91.8125 C-61.93195313 92.54082031 -62.73890625 93.26914063 -63.5703125 94.01953125 C-68.66167395 98.16956382 -72.04104299 99.57066272 -78.56640625 99.34765625 C-83.53087508 98.63844642 -86.1269276 95.96497475 -89.375 92.375 C-91.53435332 87.89018926 -92.28091947 83.86198467 -91 79 C-87.35706389 73.35904602 -82.82938959 68.53185925 -78.09594727 63.80541992 C-77.43331879 63.13607422 -76.77069031 62.46672852 -76.08798218 61.77709961 C-73.91934526 59.5896286 -71.74339966 57.40962131 -69.56640625 55.23046875 C-68.04460889 53.70223701 -66.52295905 52.17385834 -65.00144958 50.64533997 C-61.82181134 47.45376817 -58.63810883 44.26631472 -55.4519043 41.08129883 C-51.37533724 37.00493558 -47.31273735 32.91495131 -43.25349522 28.82134533 C-40.11959822 25.665196 -36.97663767 22.51819405 -33.83106804 19.37368202 C-32.32918527 17.86944397 -30.83053334 16.36197275 -29.3352375 14.85118675 C-27.24403883 12.74034842 -25.14049259 10.64261176 -23.03344727 8.54760742 C-22.11753563 7.61483727 -22.11753563 7.61483727 -21.18312073 6.66322327 C-15.06174988 0.63015773 -8.63444982 -2.75632349 0 0 Z " fill="#01619E" transform="translate(1870,113)"/>
<path d="M0 0 C3.29229952 3.80796089 5.24183704 6.48859951 5.26153564 11.59257507 C5.27010086 12.91937538 5.27010086 12.91937538 5.27883911 14.27297974 C5.27995697 15.24597015 5.28107483 16.21896057 5.28222656 17.22143555 C5.28719147 18.24436203 5.29215637 19.26728851 5.29727173 20.32121277 C5.31192096 23.71805486 5.31870084 27.11485021 5.32421875 30.51171875 C5.32996904 32.8686371 5.33572679 35.22555544 5.3414917 37.58247375 C5.3520103 42.53146585 5.35784698 47.48044166 5.36132812 52.42944336 C5.36680697 58.76694099 5.39081852 65.10422313 5.41930008 71.44165325 C5.43793936 76.31358972 5.44313281 81.1854745 5.444664 86.05744362 C5.4476894 88.3933918 5.45571411 90.72933909 5.46884918 93.0652523 C5.4859321 96.33753106 5.4840234 99.60928635 5.47753906 102.8815918 C5.48675385 103.84446106 5.49596863 104.80733032 5.50546265 105.79937744 C5.47055137 111.43262502 4.83581193 115.40302778 2.12109375 120.375 C-2.2786594 124.55476549 -5.73851753 125.68302405 -11.8203125 125.59375 C-15.90623491 125.15957229 -18.79363562 123.09851375 -22.12890625 120.875 C-26.68862496 114.36111613 -26.16441834 104.73177127 -26.06176758 97.04174805 C-26.05712494 96.07442245 -26.0524823 95.10709686 -26.04769897 94.11045837 C-26.02950126 90.95236299 -25.99596664 87.794669 -25.9609375 84.63671875 C-25.94235213 82.42479352 -25.92426854 80.21286402 -25.90666199 78.00093079 C-25.86732074 73.38390307 -25.81999906 68.7670407 -25.76733398 64.15014648 C-25.70081277 58.23781869 -25.65730416 52.32557291 -25.62007618 46.41299725 C-25.58833142 41.85325451 -25.54294853 37.2937235 -25.49359703 32.7341404 C-25.47191873 30.55371955 -25.45482007 28.37324811 -25.44242287 26.19275475 C-25.42337132 23.1485857 -25.38558271 20.10519818 -25.34301758 17.0612793 C-25.34131058 16.16505859 -25.33960358 15.26883789 -25.33784485 14.34545898 C-25.24439132 9.29515599 -24.71154522 5.73227163 -21.87890625 1.375 C-15.41156817 -3.82698933 -6.86307038 -5.93562844 0 0 Z " fill="#01619E" transform="translate(1655.87890625,3.625)"/>
<path d="M0 0 C0.91446869 9.18532997 -1.48813042 17.07895587 -6.859375 24.60546875 C-9.07446409 27.08329651 -11.36198498 28.98315692 -14 31 C-15.45147622 32.23185809 -16.90272052 33.46400847 -18.34863281 34.70239258 C-23.94898108 39.4964215 -29.64929124 44.12700334 -35.47070312 48.64916992 C-41.09250797 53.03246941 -46.58192657 57.57081005 -52.05175781 62.1418457 C-56.24669846 65.62875192 -60.52269199 68.88281294 -65 72 C-60.05 72.99 -55.1 73.98 -50 75 C-51.51704394 79.55113181 -52.62213576 82.32626687 -55.1171875 86.1875 C-55.72433594 87.13367188 -56.33148437 88.07984375 -56.95703125 89.0546875 C-57.58996094 90.02664063 -58.22289063 90.99859375 -58.875 92 C-59.81279297 93.45792969 -59.81279297 93.45792969 -60.76953125 94.9453125 C-63.80605703 99.65738421 -66.87239913 104.34789017 -70 109 C-76.23138291 106.31405909 -79.53843366 100.45477757 -82.375 94.5 C-85.83166795 85.07404411 -85.26205348 73.61389488 -81.3125 64.453125 C-73.88403448 50.5689692 -61.25034285 44.46849104 -47.7746582 37.56982422 C-32.25155637 29.59283169 -18.09982536 21.28058576 -7.53515625 7.01953125 C-2.19922631 0 -2.19922631 0 0 0 Z " fill="#559541" transform="translate(2612,257)"/>
<path d="M0 0 C13.3010224 0.66505112 26.75183503 7.11869186 35.9375 16.8125 C42.63156786 25.09580699 44.83476439 35.50581906 44 46 C42.64680851 53.35319149 42.64680851 53.35319149 41 55 C30.38963408 56.0823283 21.61337773 53.96168628 13.0625 47.5625 C1.74636162 38.01828364 -1.0002112 24.36682962 -2.25390625 10.11328125 C-2.35224339 6.14701651 -1.90961 3.43881959 0 0 Z " fill="#C58440" transform="translate(1597,279)"/>
<path d="M0 0 C3.60763779 0.67746481 4.41891996 2.19026153 6.49609375 5.16796875 C13.48530372 15.40735954 20.12455584 27.73472666 18.55859375 40.48046875 C16.18293844 50.87929529 11.45182307 61.19953632 2.55859375 67.48046875 C-0.66396583 68.12498067 -1.97673065 67.74949146 -4.81640625 66.10546875 C-12.95394402 57.96793098 -18.47074353 48.18807545 -18.94140625 36.54296875 C-18.38738027 23.48138655 -11.73531768 11.78843184 -3.9765625 1.546875 C-2.44140625 0.48046875 -2.44140625 0.48046875 0 0 Z " fill="#C58440" transform="translate(1645.44140625,216.51953125)"/>
<path d="M0 0 C4.55032608 9.10065217 0.00180306 23.82983336 -2.94921875 32.92578125 C-6.21715864 41.64459321 -10.83973855 46.55448443 -19 51 C-26.70812448 54.4129979 -33.60662084 55.5948064 -42 55 C-45.45841671 48.08316659 -44.51476305 37.35742054 -43 30 C-37.93251443 16.11133584 -28.89352585 9.24288493 -16 3 C-10.61879245 1.01431456 -5.74670184 -0.1638988 0 0 Z " fill="#C58440" transform="translate(1694,279)"/>
<path d="M0 0 C4.79072052 1.73281381 8.09938797 3.80533196 10.9375 8.0625 C11.87554505 12.58669958 11.70143065 16.539159 9.6171875 20.6953125 C7.85025167 23.28629016 5.96997784 25.67514508 3.9375 28.0625 C3.17953125 29.0215625 3.17953125 29.0215625 2.40625 30 C-4.60491632 38.01276151 -16.57634533 43.30306992 -27.12768555 44.24731445 C-29.235434 44.32907523 -31.32840908 44.33780042 -33.4375 44.3125 C-34.18717041 44.3137085 -34.93684082 44.31491699 -35.70922852 44.31616211 C-39.75976914 44.27451243 -43.12596785 43.89837752 -47 42.625 C-54.18777121 40.74992925 -61.92607234 45.56522274 -68.34179688 48.50170898 C-70.0625 49.0625 -70.0625 49.0625 -72.0625 48.0625 C-64.22160297 42.23538527 -56.36115906 36.50440189 -48.1953125 31.13671875 C-44.60119452 28.75707206 -41.04839234 26.32207714 -37.5 23.875 C-33.02616197 20.79030885 -28.54995005 17.70940449 -24.0625 14.64453125 C-23.22017822 14.06920654 -22.37785645 13.49388184 -21.51000977 12.90112305 C-19.88067102 11.78874792 -18.25097193 10.67690036 -16.62084961 9.56567383 C-15.86811768 9.05157959 -15.11538574 8.53748535 -14.33984375 8.0078125 C-13.61772705 7.51563232 -12.89561035 7.02345215 -12.15161133 6.51635742 C-10.13366187 5.11202307 -8.1662995 3.65272462 -6.1953125 2.18359375 C-3.0625 0.0625 -3.0625 0.0625 0 0 Z " fill="#5A9942" transform="translate(2600.0625,329.9375)"/>
<path d="M0 0 C0.66773437 0.80050781 1.33546875 1.60101563 2.0234375 2.42578125 C5.529345 5.45779312 8.17950444 5.88824328 12.625 6.1875 C14.04451299 6.3216812 15.46378691 6.45841517 16.8828125 6.59765625 C17.92550293 6.69264404 17.92550293 6.69264404 18.98925781 6.78955078 C23.36914539 7.24796058 27.68420712 8.14049888 32 9 C30.75112455 13.15029561 29.23271779 16.55088918 26.8828125 20.1875 C25.97208984 21.60675781 25.97208984 21.60675781 25.04296875 23.0546875 C24.41003906 24.02664063 23.77710937 24.99859375 23.125 26 C22.49980469 26.97195313 21.87460938 27.94390625 21.23046875 28.9453125 C18.19394297 33.65738421 15.12760087 38.34789017 12 43 C5.76861709 40.31405909 2.46156634 34.45477757 -0.375 28.5 C-3.73546517 19.46874987 -2.92558451 9.02250262 0 0 Z " fill="#89C249" transform="translate(2530,323)"/>
<path d="M0 0 C0.66 0.33 1.32 0.66 2 1 C-0.31 3.31 -2.62 5.62 -5 8 C-5.33 7.01 -5.66 6.02 -6 5 C-4.02 3.35 -2.04 1.7 0 0 Z " fill="#3B7F3A" transform="translate(2542,308)"/>
</svg>
